<?xml version="1.0" encoding="UTF-8" standalone="no"?>
<!-- Created with Inkscape (http://www.inkscape.org/) -->

<svg
   xmlns:dc="http://purl.org/dc/elements/1.1/"
   xmlns:cc="http://creativecommons.org/ns#"
   xmlns:rdf="http://www.w3.org/1999/02/22-rdf-syntax-ns#"
   xmlns:svg="http://www.w3.org/2000/svg"
   xmlns="http://www.w3.org/2000/svg"
   xmlns:sodipodi="http://sodipodi.sourceforge.net/DTD/sodipodi-0.dtd"
   xmlns:inkscape="http://www.inkscape.org/namespaces/inkscape"
   width="744.09448819"
   height="1052.3622047"
   id="svg2"
   version="1.1"
   inkscape:version="0.48.1 r9760"
   sodipodi:docname="canvasLayers.svg"
   inkscape:export-filename="/home/calwas/code/trickplay/engine/bindings/canvasLayers.png"
   inkscape:export-xdpi="90"
   inkscape:export-ydpi="90">
  <defs
     id="defs4">
    <inkscape:path-effect
       effect="bend_path"
       id="path-effect2992"
       is_visible="true"
       bendpath="m 170.18802,507.17365 328.63891,0"
       prop_scale="1"
       scale_y_rel="false"
       vertical="false" />
  </defs>
  <sodipodi:namedview
     id="base"
     pagecolor="#ffffff"
     bordercolor="#666666"
     borderopacity="1.0"
     inkscape:pageopacity="0.0"
     inkscape:pageshadow="2"
     inkscape:zoom="1.2049084"
     inkscape:cx="298.0005"
     inkscape:cy="471.35257"
     inkscape:document-units="px"
     inkscape:current-layer="layer1"
     showgrid="false"
     inkscape:window-width="1337"
     inkscape:window-height="826"
     inkscape:window-x="66"
     inkscape:window-y="24"
     inkscape:window-maximized="0" />
  <metadata
     id="metadata7">
    <rdf:RDF>
      <cc:Work
         rdf:about="">
        <dc:format>image/svg+xml</dc:format>
        <dc:type
           rdf:resource="http://purl.org/dc/dcmitype/StillImage" />
        <dc:title></dc:title>
      </cc:Work>
    </rdf:RDF>
  </metadata>
  <g
     inkscape:label="Layer 1"
     inkscape:groupmode="layer"
     id="layer1">
    <path
       style="fill:#e6e6e6;fill-opacity:1;stroke:#000000;stroke-width:1;stroke-linejoin:miter;stroke-miterlimit:4;stroke-opacity:1;stroke-dashoffset:0"
       d="m 219.30777,494.84972 279.18464,-0.48617 32.54037,104.9464 -342.72346,0 z"
       id="rect2994"
       inkscape:connector-curvature="0"
       sodipodi:nodetypes="ccccc" />
    <g
       style="font-size:20px;font-style:normal;font-weight:normal;line-height:125%;letter-spacing:0px;word-spacing:0px;fill:#000000;fill-opacity:1;stroke:none;font-family:Sans"
       id="text3771"
       transform="translate(176.16605,-156.02846)">
      <path
         d="m 100.1798,709.59058 0,11.33789 2.38281,0 c 2.01171,0 3.48307,-0.45573 4.41407,-1.36719 0.93749,-0.91146 1.40623,-2.35026 1.40625,-4.31641 -2e-5,-1.95311 -0.46876,-3.38215 -1.40625,-4.28711 -0.931,-0.91144 -2.40236,-1.36717 -4.41407,-1.36718 l -2.38281,0 m -1.972654,-1.6211 4.052734,0 c 2.82551,2e-5 4.89908,0.58921 6.2207,1.76758 1.3216,1.17189 1.98241,3.00782 1.98243,5.50781 -2e-5,2.51303 -0.66408,4.35873 -1.99219,5.53711 -1.32814,1.17839 -3.39845,1.76758 -6.21094,1.76758 l -4.052734,0 0,-14.58008"
         id="path3778"
         inkscape:connector-curvature="0" />
      <path
         d="m 119.85754,713.29175 c -0.20183,-0.11718 -0.42319,-0.20182 -0.66407,-0.25391 -0.23438,-0.0586 -0.49479,-0.0879 -0.78125,-0.0879 -1.01563,10e-6 -1.79688,0.33204 -2.34375,0.99609 -0.54036,0.65756 -0.81055,1.60483 -0.81054,2.8418 l 0,5.76172 -1.80664,0 0,-10.9375 1.80664,0 0,1.69922 c 0.3776,-0.66405 0.86913,-1.15559 1.47461,-1.47461 0.60546,-0.32551 1.34114,-0.48827 2.20703,-0.48828 0.12369,10e-6 0.26041,0.01 0.41015,0.0293 0.14974,0.013 0.31575,0.0358 0.49805,0.0684 l 0.01,1.84571"
         id="path3780"
         inkscape:connector-curvature="0" />
      <path
         d="m 126.73254,717.05151 c -1.45183,10e-6 -2.45769,0.16602 -3.01758,0.49805 -0.5599,0.33204 -0.83985,0.89844 -0.83985,1.69922 0,0.63802 0.20833,1.14583 0.625,1.52344 0.42318,0.37109 0.99609,0.55664 1.71875,0.55664 0.99609,0 1.79362,-0.35156 2.39258,-1.05469 0.60546,-0.70963 0.9082,-1.65039 0.90821,-2.82227 l 0,-0.40039 -1.78711,0 m 3.58398,-0.74218 0,6.24023 -1.79687,0 0,-1.66016 c -0.41017,0.66407 -0.92124,1.1556 -1.53321,1.47461 -0.61198,0.3125 -1.36068,0.46875 -2.24609,0.46875 -1.1198,0 -2.01172,-0.3125 -2.67578,-0.9375 -0.65756,-0.63151 -0.98633,-1.4746 -0.98633,-2.52929 0,-1.23047 0.41015,-2.1582 1.23047,-2.78321 0.82682,-0.62499 2.05729,-0.93749 3.6914,-0.9375 l 2.51954,0 0,-0.17578 c -1e-5,-0.82681 -0.27345,-1.46483 -0.82032,-1.91406 -0.54037,-0.45572 -1.30209,-0.68358 -2.28515,-0.68359 -0.62501,10e-6 -1.23373,0.0749 -1.82617,0.22461 -0.59246,0.14974 -1.16212,0.37435 -1.70899,0.67382 l 0,-1.66015 c 0.65755,-0.2539 1.29557,-0.4427 1.91406,-0.56641 0.61849,-0.1302 1.2207,-0.1953 1.80664,-0.19531 1.58203,10e-6 2.76367,0.41017 3.54493,1.23047 0.78124,0.82032 1.17186,2.06381 1.17187,3.73047"
         id="path3782"
         inkscape:connector-curvature="0" />
      <path
         d="m 132.98254,711.61206 1.79687,0 2.2461,8.53516 2.23632,-8.53516 2.11914,0 2.2461,8.53516 2.23633,-8.53516 1.79687,0 -2.86133,10.9375 -2.11914,0 -2.35351,-8.96484 -2.36328,8.96484 -2.11915,0 -2.86132,-10.9375"
         id="path3784"
         inkscape:connector-curvature="0" />
      <path
         d="m 150.39465,711.61206 1.79687,0 0,10.9375 -1.79687,0 0,-10.9375 m 0,-4.25781 1.79687,0 0,2.27539 -1.79687,0 0,-2.27539"
         id="path3786"
         inkscape:connector-curvature="0" />
      <path
         d="m 165.03332,715.948 0,6.60156 -1.79688,0 0,-6.54297 c -10e-6,-1.03515 -0.20183,-1.80989 -0.60547,-2.32422 -0.40365,-0.51431 -1.00912,-0.77147 -1.8164,-0.77148 -0.97006,10e-6 -1.73503,0.30925 -2.29492,0.92773 -0.5599,0.6185 -0.83985,1.4616 -0.83985,2.5293 l 0,6.18164 -1.80664,0 0,-10.9375 1.80664,0 0,1.69922 c 0.42969,-0.65754 0.93424,-1.14908 1.51367,-1.47461 0.58594,-0.32551 1.25976,-0.48827 2.02149,-0.48828 1.2565,10e-6 2.20702,0.39063 2.85156,1.17187 0.64452,0.77475 0.96679,1.91733 0.9668,3.42774"
         id="path3788"
         inkscape:connector-curvature="0" />
      <path
         d="m 175.8341,716.95386 c -1e-5,-1.30208 -0.27019,-2.31119 -0.81055,-3.02735 -0.53386,-0.71613 -1.28581,-1.07421 -2.25586,-1.07422 -0.96354,10e-6 -1.7155,0.35809 -2.25586,1.07422 -0.53385,0.71616 -0.80078,1.72527 -0.80078,3.02735 0,1.29557 0.26693,2.30143 0.80078,3.01758 0.54036,0.71614 1.29232,1.07422 2.25586,1.07421 0.97005,10e-6 1.722,-0.35807 2.25586,-1.07421 0.54036,-0.71615 0.81054,-1.72201 0.81055,-3.01758 m 1.79687,4.23828 c -1e-5,1.86198 -0.41342,3.24544 -1.24023,4.15039 -0.82683,0.91145 -2.09311,1.36718 -3.79883,1.36719 -0.63151,-10e-6 -1.22722,-0.0488 -1.78711,-0.14649 -0.5599,-0.0911 -1.10352,-0.23438 -1.63086,-0.42969 l 0,-1.74804 c 0.52734,0.28645 1.04818,0.49804 1.5625,0.63476 0.51432,0.13672 1.03841,0.20508 1.57227,0.20508 1.17838,0 2.06054,-0.30925 2.64648,-0.92773 0.58593,-0.61198 0.8789,-1.53972 0.87891,-2.78321 l 0,-0.88867 c -0.3711,0.64453 -0.84636,1.12631 -1.42578,1.44531 -0.57944,0.31902 -1.2728,0.47852 -2.08008,0.47852 -1.34115,0 -2.42188,-0.51107 -3.24219,-1.5332 -0.82031,-1.02214 -1.23047,-2.3763 -1.23047,-4.0625 0,-1.6927 0.41016,-3.05012 1.23047,-4.07227 0.82031,-1.02212 1.90104,-1.53319 3.24219,-1.5332 0.80728,10e-6 1.50064,0.15951 2.08008,0.47851 0.57942,0.31903 1.05468,0.8008 1.42578,1.44532 l 0,-1.66016 1.79687,0 0,9.58008"
         id="path3790"
         inkscape:connector-curvature="0" />
      <path
         d="m 196.51769,708.448 0,1.92383 c -0.74871,-0.35806 -1.45508,-0.62499 -2.11914,-0.80079 -0.66407,-0.17576 -1.30534,-0.26365 -1.92383,-0.26367 -1.07422,2e-5 -1.9043,0.20835 -2.49023,0.625 -0.57943,0.41668 -0.86914,1.00913 -0.86914,1.77735 0,0.64454 0.19205,1.13282 0.57617,1.46484 0.39062,0.32553 1.1263,0.5892 2.20703,0.79102 l 1.19141,0.24414 c 1.47134,0.27995 2.55533,0.77474 3.25195,1.48437 0.70312,0.70313 1.05468,1.64714 1.05469,2.83203 -1e-5,1.41277 -0.47527,2.48373 -1.42578,3.21289 -0.94402,0.72917 -2.33074,1.09375 -4.16016,1.09375 -0.69011,0 -1.42578,-0.0781 -2.20703,-0.23437 -0.77474,-0.15625 -1.57878,-0.38737 -2.41211,-0.69336 l 0,-2.03125 c 0.80078,0.44922 1.58528,0.78776 2.35352,1.01562 0.76822,0.22787 1.52343,0.3418 2.26562,0.3418 1.1263,0 1.99544,-0.22135 2.60742,-0.66406 0.61197,-0.44271 0.91796,-1.07422 0.91797,-1.89453 -1e-5,-0.71614 -0.22136,-1.27604 -0.66406,-1.67969 -0.43621,-0.40364 -1.15561,-0.70637 -2.1582,-0.9082 l -1.20118,-0.23438 c -1.47135,-0.29296 -2.53581,-0.75194 -3.19335,-1.37695 -0.65756,-0.62499 -0.98633,-1.49413 -0.98633,-2.60742 0,-1.28905 0.45247,-2.30468 1.35742,-3.04688 0.91145,-0.74217 2.16471,-1.11326 3.75976,-1.11328 0.68359,2e-5 1.3802,0.0619 2.08985,0.18555 0.70962,0.12371 1.43554,0.30926 2.17773,0.55664"
         id="path3792"
         inkscape:connector-curvature="0" />
      <path
         d="m 200.2091,718.23315 0,-6.62109 1.79687,0 0,6.55273 c 0,1.03516 0.20182,1.81316 0.60547,2.33399 0.40364,0.51432 1.00911,0.77148 1.81641,0.77148 0.97004,0 1.73502,-0.30924 2.29492,-0.92773 0.5664,-0.61849 0.8496,-1.46159 0.84961,-2.5293 l 0,-6.20117 1.79688,0 0,10.9375 -1.79688,0 0,-1.67969 c -0.43621,0.66407 -0.94402,1.15886 -1.52344,1.48438 -0.57292,0.31901 -1.24024,0.47851 -2.00195,0.47851 -1.25652,0 -2.21029,-0.39062 -2.86133,-1.17187 -0.65104,-0.78125 -0.97656,-1.92383 -0.97656,-3.42774 m 4.52148,-6.88476 0,0"
         id="path3794"
         inkscape:connector-curvature="0" />
      <path
         d="m 219.42785,713.29175 c -0.20183,-0.11718 -0.42319,-0.20182 -0.66406,-0.25391 -0.23439,-0.0586 -0.4948,-0.0879 -0.78125,-0.0879 -1.01563,10e-6 -1.79688,0.33204 -2.34375,0.99609 -0.54037,0.65756 -0.81055,1.60483 -0.81055,2.8418 l 0,5.76172 -1.80664,0 0,-10.9375 1.80664,0 0,1.69922 c 0.3776,-0.66405 0.86914,-1.15559 1.47461,-1.47461 0.60546,-0.32551 1.34114,-0.48827 2.20703,-0.48828 0.12369,10e-6 0.26041,0.01 0.41016,0.0293 0.14973,0.013 0.31574,0.0358 0.49804,0.0684 l 0.01,1.84571"
         id="path3796"
         inkscape:connector-curvature="0" />
      <path
         d="m 226.86926,707.35425 0,1.49414 -1.71875,0 c -0.64454,10e-6 -1.09376,0.13022 -1.34766,0.39062 -0.2474,0.26043 -0.3711,0.72918 -0.37109,1.40625 l 0,0.9668 2.95898,0 0,1.39648 -2.95898,0 0,9.54102 -1.80665,0 0,-9.54102 -1.71875,0 0,-1.39648 1.71875,0 0,-0.76172 c 0,-1.21743 0.28321,-2.10285 0.84961,-2.65625 0.56641,-0.55988 1.46484,-0.83983 2.69532,-0.83984 l 1.69922,0"
         id="path3798"
         inkscape:connector-curvature="0" />
      <path
         d="m 233.3341,717.05151 c -1.45183,10e-6 -2.45769,0.16602 -3.01758,0.49805 -0.5599,0.33204 -0.83985,0.89844 -0.83984,1.69922 -10e-6,0.63802 0.20833,1.14583 0.625,1.52344 0.42317,0.37109 0.99609,0.55664 1.71875,0.55664 0.99608,0 1.79361,-0.35156 2.39258,-1.05469 0.60546,-0.70963 0.90819,-1.65039 0.9082,-2.82227 l 0,-0.40039 -1.78711,0 m 3.58398,-0.74218 0,6.24023 -1.79687,0 0,-1.66016 c -0.41017,0.66407 -0.92123,1.1556 -1.5332,1.47461 -0.61199,0.3125 -1.36069,0.46875 -2.2461,0.46875 -1.11979,0 -2.01172,-0.3125 -2.67578,-0.9375 -0.65755,-0.63151 -0.98633,-1.4746 -0.98633,-2.52929 0,-1.23047 0.41016,-2.1582 1.23047,-2.78321 0.82682,-0.62499 2.05729,-0.93749 3.69141,-0.9375 l 2.51953,0 0,-0.17578 c -1e-5,-0.82681 -0.27345,-1.46483 -0.82031,-1.91406 -0.54038,-0.45572 -1.30209,-0.68358 -2.28516,-0.68359 -0.62501,10e-6 -1.23373,0.0749 -1.82617,0.22461 -0.59245,0.14974 -1.16211,0.37435 -1.70899,0.67382 l 0,-1.66015 c 0.65755,-0.2539 1.29557,-0.4427 1.91407,-0.56641 0.61848,-0.1302 1.22069,-0.1953 1.80664,-0.19531 1.58202,10e-6 2.76366,0.41017 3.54492,1.23047 0.78124,0.82032 1.17186,2.06381 1.17187,3.73047"
         id="path3800"
         inkscape:connector-curvature="0" />
      <path
         d="m 248.50011,712.03198 0,1.67969 c -0.50782,-0.27994 -1.01888,-0.48827 -1.5332,-0.625 -0.50782,-0.14322 -1.02214,-0.21483 -1.54297,-0.21484 -1.16537,10e-6 -2.07031,0.3711 -2.71484,1.11328 -0.64454,0.73568 -0.9668,1.77084 -0.9668,3.10547 0,1.33464 0.32226,2.37305 0.9668,3.11523 0.64453,0.73568 1.54947,1.10352 2.71484,1.10352 0.52083,0 1.03515,-0.0684 1.54297,-0.20508 0.51432,-0.14323 1.02538,-0.35482 1.5332,-0.63477 l 0,1.66016 c -0.50131,0.23437 -1.02214,0.41015 -1.5625,0.52734 -0.53386,0.11719 -1.10352,0.17578 -1.70898,0.17578 -1.64714,0 -2.95573,-0.51757 -3.92578,-1.55273 -0.97005,-1.03515 -1.45508,-2.43164 -1.45508,-4.18945 0,-1.78385 0.48828,-3.18684 1.46484,-4.20899 0.98307,-1.02212 2.32747,-1.53319 4.03321,-1.5332 0.55338,10e-6 1.09374,0.0586 1.62109,0.17578 0.52734,0.11069 1.0384,0.27996 1.5332,0.50781"
         id="path3802"
         inkscape:connector-curvature="0" />
      <path
         d="m 261.00011,716.63159 0,0.87891 -8.26171,0 c 0.0781,1.23698 0.44921,2.18099 1.11328,2.83203 0.67057,0.64453 1.60155,0.9668 2.79297,0.9668 0.69009,0 1.35741,-0.0846 2.00195,-0.25391 0.65103,-0.16927 1.29556,-0.42318 1.93359,-0.76172 l 0,1.69922 c -0.64454,0.27344 -1.30535,0.48177 -1.98242,0.625 -0.67709,0.14323 -1.36394,0.21484 -2.06055,0.21484 -1.74479,0 -3.12826,-0.50781 -4.15039,-1.52343 -1.01562,-1.01563 -1.52344,-2.38932 -1.52343,-4.1211 -1e-5,-1.79036 0.48176,-3.20962 1.44531,-4.25781 0.97005,-1.05468 2.27538,-1.58202 3.91601,-1.58203 1.47135,10e-6 2.63346,0.47527 3.48633,1.42578 0.85937,0.94402 1.28905,2.22983 1.28906,3.85742 m -1.79687,-0.52734 c -0.013,-0.98307 -0.28972,-1.76757 -0.83008,-2.35352 -0.53386,-0.58593 -1.2435,-0.87889 -2.1289,-0.8789 -1.00261,10e-6 -1.80665,0.28321 -2.41211,0.84961 -0.59897,0.56641 -0.94402,1.36394 -1.03516,2.39257 l 6.40625,-0.01"
         id="path3804"
         inkscape:connector-curvature="0" />
      <path
         d="m 267.14269,707.96948 1.66016,0 -5.07813,16.43555 -1.66015,0 5.07812,-16.43555"
         id="path3806"
         inkscape:connector-curvature="0" />
      <path
         d="m 125.64855,734.59058 0,11.33789 2.38281,0 c 2.01171,0 3.48307,-0.45573 4.41407,-1.36719 0.93749,-0.91146 1.40623,-2.35026 1.40625,-4.31641 -2e-5,-1.95311 -0.46876,-3.38215 -1.40625,-4.28711 -0.931,-0.91144 -2.40236,-1.36717 -4.41407,-1.36718 l -2.38281,0 m -1.97265,-1.6211 4.05273,0 c 2.82551,2e-5 4.89908,0.58921 6.2207,1.76758 1.3216,1.17189 1.98241,3.00782 1.98243,5.50781 -2e-5,2.51303 -0.66408,4.35873 -1.99219,5.53711 -1.32814,1.17839 -3.39845,1.76758 -6.21094,1.76758 l -4.05273,0 0,-14.58008"
         id="path3808"
         inkscape:connector-curvature="0" />
      <path
         d="m 148.34386,741.63159 0,0.87891 -8.26171,0 c 0.0781,1.23698 0.44921,2.18099 1.11328,2.83203 0.67057,0.64453 1.60155,0.9668 2.79297,0.9668 0.69009,0 1.35741,-0.0846 2.00195,-0.25391 0.65103,-0.16927 1.29556,-0.42318 1.93359,-0.76172 l 0,1.69922 c -0.64454,0.27344 -1.30535,0.48177 -1.98242,0.625 -0.67709,0.14323 -1.36394,0.21484 -2.06055,0.21484 -1.74479,0 -3.12826,-0.50781 -4.15039,-1.52343 -1.01562,-1.01563 -1.52344,-2.38932 -1.52343,-4.1211 -1e-5,-1.79036 0.48176,-3.20962 1.44531,-4.25781 0.97005,-1.05468 2.27538,-1.58202 3.91601,-1.58203 1.47135,10e-6 2.63346,0.47527 3.48633,1.42578 0.85937,0.94402 1.28905,2.22983 1.28906,3.85742 m -1.79687,-0.52734 c -0.013,-0.98307 -0.28972,-1.76757 -0.83008,-2.35352 -0.53386,-0.58593 -1.2435,-0.87889 -2.1289,-0.8789 -1.00261,10e-6 -1.80665,0.28321 -2.41211,0.84961 -0.59897,0.56641 -0.94402,1.36394 -1.03516,2.39257 l 6.40625,-0.01"
         id="path3810"
         inkscape:connector-curvature="0" />
      <path
         d="m 158.26574,736.93433 0,1.69921 c -0.50782,-0.2604 -1.03516,-0.45571 -1.58203,-0.58593 -0.54688,-0.1302 -1.11329,-0.19531 -1.69922,-0.19532 -0.89193,10e-6 -1.5625,0.13673 -2.01172,0.41016 -0.44271,0.27345 -0.66406,0.6836 -0.66406,1.23047 0,0.41667 0.1595,0.74545 0.47851,0.98633 0.31901,0.23438 0.96029,0.45899 1.92383,0.67383 l 0.61524,0.13671 c 1.27603,0.27345 2.18098,0.66082 2.71484,1.16211 0.54036,0.4948 0.81054,1.18816 0.81055,2.08008 -10e-6,1.01563 -0.40366,1.81967 -1.21094,2.41211 -0.80079,0.59245 -1.9043,0.88867 -3.31055,0.88867 -0.58594,0 -1.19792,-0.0586 -1.83593,-0.17578 -0.63152,-0.11067 -1.29883,-0.27995 -2.00196,-0.50781 l 0,-1.85547 c 0.66406,0.34506 1.31836,0.60547 1.96289,0.78125 0.64453,0.16927 1.28255,0.25391 1.91407,0.25391 0.84634,0 1.49738,-0.14323 1.95312,-0.42969 0.45572,-0.29297 0.68359,-0.70312 0.68359,-1.23047 0,-0.48828 -0.16602,-0.86263 -0.49804,-1.12305 -0.32553,-0.26041 -1.04493,-0.51106 -2.15821,-0.75195 l -0.625,-0.14648 c -1.11328,-0.23437 -1.91732,-0.59245 -2.41211,-1.07422 -0.49479,-0.48828 -0.74218,-1.15559 -0.74218,-2.00196 0,-1.02863 0.36458,-1.8229 1.09375,-2.38281 0.72916,-0.55988 1.76432,-0.83983 3.10547,-0.83984 0.66405,10e-6 1.28905,0.0488 1.875,0.14648 0.58593,0.0977 1.12629,0.24415 1.62109,0.43946"
         id="path3812"
         inkscape:connector-curvature="0" />
      <path
         d="m 163.50011,733.50659 0,3.10547 3.70118,0 0,1.39648 -3.70118,0 0,5.9375 c 0,0.89193 0.12044,1.46485 0.36133,1.71875 0.24739,0.25391 0.74544,0.38087 1.49414,0.38086 l 1.84571,0 0,1.50391 -1.84571,0 c -1.38672,0 -2.34375,-0.25716 -2.87109,-0.77148 -0.52735,-0.52084 -0.79102,-1.46485 -0.79102,-2.83204 l 0,-5.9375 -1.31836,0 0,-1.39648 1.31836,0 0,-3.10547 1.80664,0"
         id="path3814"
         inkscape:connector-curvature="0" />
      <path
         d="m 169.57433,736.61206 1.79688,0 0,10.9375 -1.79688,0 0,-10.9375 m 0,-4.25781 1.79688,0 0,2.27539 -1.79688,0 0,-2.27539"
         id="path3816"
         inkscape:connector-curvature="0" />
      <path
         d="m 184.21301,740.948 0,6.60156 -1.79688,0 0,-6.54297 c -1e-5,-1.03515 -0.20183,-1.80989 -0.60547,-2.32422 -0.40365,-0.51431 -1.00912,-0.77147 -1.8164,-0.77148 -0.97006,10e-6 -1.73504,0.30925 -2.29493,0.92773 -0.5599,0.6185 -0.83984,1.4616 -0.83984,2.5293 l 0,6.18164 -1.80664,0 0,-10.9375 1.80664,0 0,1.69922 c 0.42968,-0.65754 0.93424,-1.14908 1.51367,-1.47461 0.58593,-0.32551 1.25976,-0.48827 2.02149,-0.48828 1.2565,10e-6 2.20702,0.39063 2.85156,1.17187 0.64452,0.77475 0.96678,1.91733 0.9668,3.42774"
         id="path3818"
         inkscape:connector-curvature="0" />
      <path
         d="m 192.78722,742.05151 c -1.45182,10e-6 -2.45768,0.16602 -3.01757,0.49805 -0.5599,0.33204 -0.83985,0.89844 -0.83985,1.69922 0,0.63802 0.20833,1.14583 0.625,1.52344 0.42317,0.37109 0.99609,0.55664 1.71875,0.55664 0.99609,0 1.79361,-0.35156 2.39258,-1.05469 0.60546,-0.70963 0.90819,-1.65039 0.9082,-2.82227 l 0,-0.40039 -1.78711,0 m 3.58399,-0.74218 0,6.24023 -1.79688,0 0,-1.66016 c -0.41016,0.66407 -0.92123,1.1556 -1.5332,1.47461 -0.61199,0.3125 -1.36068,0.46875 -2.24609,0.46875 -1.1198,0 -2.01173,-0.3125 -2.67578,-0.9375 -0.65756,-0.63151 -0.98633,-1.4746 -0.98633,-2.52929 0,-1.23047 0.41015,-2.1582 1.23047,-2.78321 0.82682,-0.62499 2.05728,-0.93749 3.6914,-0.9375 l 2.51953,0 0,-0.17578 c -1e-5,-0.82681 -0.27344,-1.46483 -0.82031,-1.91406 -0.54037,-0.45572 -1.30209,-0.68358 -2.28516,-0.68359 -0.625,10e-6 -1.23372,0.0749 -1.82617,0.22461 -0.59245,0.14974 -1.16211,0.37435 -1.70898,0.67382 l 0,-1.66015 c 0.65755,-0.2539 1.29557,-0.4427 1.91406,-0.56641 0.61849,-0.1302 1.2207,-0.1953 1.80664,-0.19531 1.58203,10e-6 2.76366,0.41017 3.54492,1.23047 0.78124,0.82032 1.17187,2.06381 1.17188,3.73047"
         id="path3820"
         inkscape:connector-curvature="0" />
      <path
         d="m 201.85949,733.50659 0,3.10547 3.70117,0 0,1.39648 -3.70117,0 0,5.9375 c 0,0.89193 0.12044,1.46485 0.36133,1.71875 0.24739,0.25391 0.74544,0.38087 1.49414,0.38086 l 1.8457,0 0,1.50391 -1.8457,0 c -1.38672,0 -2.34375,-0.25716 -2.8711,-0.77148 -0.52734,-0.52084 -0.79101,-1.46485 -0.79101,-2.83204 l 0,-5.9375 -1.31836,0 0,-1.39648 1.31836,0 0,-3.10547 1.80664,0"
         id="path3822"
         inkscape:connector-curvature="0" />
      <path
         d="m 207.93371,736.61206 1.79687,0 0,10.9375 -1.79687,0 0,-10.9375 m 0,-4.25781 1.79687,0 0,2.27539 -1.79687,0 0,-2.27539"
         id="path3824"
         inkscape:connector-curvature="0" />
      <path
         d="m 217.71886,737.87183 c -0.96354,10e-6 -1.72526,0.37761 -2.28515,1.13281 -0.5599,0.7487 -0.83985,1.77735 -0.83985,3.08594 0,1.30859 0.27669,2.34049 0.83008,3.0957 0.55989,0.7487 1.32487,1.12305 2.29492,1.12305 0.95703,0 1.71549,-0.37761 2.2754,-1.13282 0.55988,-0.7552 0.83983,-1.78385 0.83984,-3.08593 -1e-5,-1.29557 -0.27996,-2.32096 -0.83984,-3.07618 -0.55991,-0.76171 -1.31837,-1.14256 -2.2754,-1.14257 m 0,-1.52344 c 1.5625,10e-6 2.78971,0.50782 3.68165,1.52344 0.89191,1.01563 1.33787,2.42188 1.33789,4.21875 -2e-5,1.79036 -0.44598,3.19661 -1.33789,4.21875 -0.89194,1.01562 -2.11915,1.52343 -3.68165,1.52343 -1.56901,0 -2.79948,-0.50781 -3.6914,-1.52343 -0.88542,-1.02214 -1.32813,-2.42839 -1.32813,-4.21875 0,-1.79687 0.44271,-3.20312 1.32813,-4.21875 0.89192,-1.01562 2.12239,-1.52343 3.6914,-1.52344"
         id="path3826"
         inkscape:connector-curvature="0" />
      <path
         d="m 234.79894,740.948 0,6.60156 -1.79687,0 0,-6.54297 c -1e-5,-1.03515 -0.20183,-1.80989 -0.60547,-2.32422 -0.40366,-0.51431 -1.00912,-0.77147 -1.81641,-0.77148 -0.97006,10e-6 -1.73503,0.30925 -2.29492,0.92773 -0.5599,0.6185 -0.83985,1.4616 -0.83984,2.5293 l 0,6.18164 -1.80664,0 0,-10.9375 1.80664,0 0,1.69922 c 0.42968,-0.65754 0.93424,-1.14908 1.51367,-1.47461 0.58593,-0.32551 1.25976,-0.48827 2.02148,-0.48828 1.25651,10e-6 2.20703,0.39063 2.85157,1.17187 0.64452,0.77475 0.96678,1.91733 0.96679,3.42774"
         id="path3828"
         inkscape:connector-curvature="0" />
    </g>
    <path
       sodipodi:nodetypes="ccccc"
       inkscape:connector-curvature="0"
       id="path3838"
       d="m 219.30777,428.45463 279.18464,-0.48617 32.54037,104.9464 -342.72346,0 z"
       style="fill:#ffaaaa;fill-opacity:0.70588235;stroke:#000000;stroke-width:1;stroke-linejoin:miter;stroke-miterlimit:4;stroke-opacity:1;stroke-dashoffset:0" />
    <text
       xml:space="preserve"
       style="font-size:20px;font-style:normal;font-weight:normal;line-height:125%;letter-spacing:0px;word-spacing:0px;fill:#000000;fill-opacity:1;stroke:none;font-family:Sans"
       x="307.57632"
       y="519.54156"
       id="text3830"
       sodipodi:linespacing="125%"><tspan
         sodipodi:role="line"
         id="tspan3832"
         x="307.57632"
         y="519.54156">Path/Mask</tspan></text>
    <path
       style="fill:#8080ea;fill-opacity:0.70588235;stroke:#000000;stroke-width:1;stroke-linejoin:miter;stroke-miterlimit:4;stroke-opacity:1;stroke-dashoffset:0"
       d="m 219.30776,359.56973 279.18464,-0.48617 32.54038,104.9464 -342.72346,0 z"
       id="path3840"
       inkscape:connector-curvature="0"
       sodipodi:nodetypes="ccccc" />
    <text
       xml:space="preserve"
       style="font-size:20px;font-style:normal;font-weight:normal;line-height:125%;letter-spacing:0px;word-spacing:0px;fill:#000000;fill-opacity:1;stroke:none;font-family:Sans"
       x="325.1691"
       y="451.48663"
       id="text3834"
       sodipodi:linespacing="125%"><tspan
         sodipodi:role="line"
         id="tspan3836"
         x="325.1691"
         y="451.48663">Source</tspan></text>
  </g>
</svg>
