<?xml version="1.0" encoding="UTF-8" standalone="no"?>
<!-- Created with Inkscape (http://www.inkscape.org/) -->

<svg
   xmlns:dc="http://purl.org/dc/elements/1.1/"
   xmlns:cc="http://creativecommons.org/ns#"
   xmlns:rdf="http://www.w3.org/1999/02/22-rdf-syntax-ns#"
   xmlns:svg="http://www.w3.org/2000/svg"
   xmlns="http://www.w3.org/2000/svg"
   xmlns:sodipodi="http://sodipodi.sourceforge.net/DTD/sodipodi-0.dtd"
   xmlns:inkscape="http://www.inkscape.org/namespaces/inkscape"
   width="744.09448819"
   height="1052.3622047"
   id="svg2"
   version="1.1"
   inkscape:version="0.48.1 r9760"
   sodipodi:docname="canvasFillRuleWThreeCircles.svg"
   inkscape:export-filename="/home/calwas/code/trickplay/engine/bindings/canvasFillRuleWThreeCircles.png"
   inkscape:export-xdpi="90"
   inkscape:export-ydpi="90">
  <defs
     id="defs4" />
  <sodipodi:namedview
     id="base"
     pagecolor="#ffffff"
     bordercolor="#666666"
     borderopacity="1.0"
     inkscape:pageopacity="0.0"
     inkscape:pageshadow="2"
     inkscape:zoom="1"
     inkscape:cx="249.5"
     inkscape:cy="520"
     inkscape:document-units="px"
     inkscape:current-layer="layer1"
     showgrid="false"
     inkscape:window-width="1440"
     inkscape:window-height="876"
     inkscape:window-x="0"
     inkscape:window-y="24"
     inkscape:window-maximized="1" />
  <metadata
     id="metadata7">
    <rdf:RDF>
      <cc:Work
         rdf:about="">
        <dc:format>image/svg+xml</dc:format>
        <dc:type
           rdf:resource="http://purl.org/dc/dcmitype/StillImage" />
        <dc:title></dc:title>
      </cc:Work>
    </rdf:RDF>
  </metadata>
  <g
     inkscape:label="Layer 1"
     inkscape:groupmode="layer"
     id="layer1">
    <path
       id="path2991"
       transform="translate(45,-80)"
       style="fill:#cccccc;fill-opacity:1;stroke:#000000;stroke-width:1;stroke-linejoin:miter;stroke-miterlimit:4;stroke-dashoffset:0;stroke-opacity:1"
       d="m 282,454.36218 c 0,41.97364 -36.04108,76 -80.5,76 -44.45892,0 -80.5,-34.02636 -80.5,-76 0,-41.97364 36.04108,-76 80.5,-76 44.45892,0 80.5,34.02636 80.5,76 z m 45,80 c 0,41.97364 -36.04108,76 -80.5,76 -44.45892,0 -80.5,-34.02636 -80.5,-76 0,-41.97364 36.04108,-76 80.5,-76 44.45892,0 80.5,34.02636 80.5,76 z m -90,0 c 0,41.97364 -36.04108,76 -80.5,76 -44.45892,0 -80.5,-34.02636 -80.5,-76 0,-41.97364 36.04108,-76 80.5,-76 44.45892,0 80.5,34.02636 80.5,76 z" />
    <path
       style="fill:#ffffff;fill-opacity:1;stroke:#000000;stroke-width:1;stroke-linejoin:miter;stroke-miterlimit:4;stroke-opacity:1;stroke-dasharray:none;stroke-dashoffset:0"
       d="m 204.19876,437.61927 c -16.91183,-10.18377 -29.3778,-26.22005 -34.36083,-44.20192 l -1.9986,-7.21217 7.68034,-2.42049 c 20.4236,-6.43659 39.2368,-5.65249 58.69048,2.4461 10.4048,4.33152 10.60381,4.82876 3.9784,9.94023 -10.0348,7.74179 -18.85353,20.12828 -23.61038,33.16236 -1.58299,4.33751 -2.87817,8.77343 -2.87817,9.85759 0,2.67193 -0.69627,2.52604 -7.50124,-1.5717 z"
       id="path3032"
       inkscape:connector-curvature="0" />
    <path
       style="fill:#ffffff;fill-opacity:1;stroke:#000000;stroke-width:1;stroke-linejoin:miter;stroke-miterlimit:4;stroke-opacity:1;stroke-dasharray:none;stroke-dashoffset:0"
       d="m 232.28986,448.16774 c -2.70058,-0.48707 -7.98808,-1.89464 -11.75,-3.12794 -8.04994,-2.63908 -8.24559,-3.2745 -4.38071,-14.22681 4.34874,-12.32348 12.93004,-24.22083 24.10643,-33.42185 4.2077,-3.46401 5.81754,-4.24213 7.60362,-3.67525 3.6649,1.16319 19.00902,17.39314 23.11201,24.44629 4.68502,8.05367 9.46776,22.65103 7.92648,24.19231 -0.58689,0.58689 -4.81121,2.18042 -9.38738,3.54117 -9.22732,2.7438 -28.1964,3.90144 -37.23045,2.27208 l 0,0 z"
       id="path3034"
       inkscape:connector-curvature="0" />
    <path
       style="fill:#ffffff;fill-opacity:1;stroke:#000000;stroke-width:1;stroke-linejoin:miter;stroke-miterlimit:4;stroke-opacity:1;stroke-dasharray:none;stroke-dashoffset:0"
       d="m 279.4035,432.30865 c -4.57894,-14.48948 -13.69749,-27.56203 -26.01936,-37.30191 l -4.87424,-3.85286 7.34505,-3.47995 c 18.95265,-8.97941 40.64188,-10.59396 60.12183,-4.47547 9.27561,2.91339 9.26946,2.90653 7.73362,8.61938 -4.80372,17.86842 -16.90055,34.18629 -33.0104,44.52899 -4.125,2.6483 -7.725,4.81417 -8,4.81305 -0.275,-0.001 -1.75843,-3.98417 -3.2965,-8.85123 l 0,0 z"
       id="path3036"
       inkscape:connector-curvature="0" />
    <path
       style="fill:#ffffff;fill-opacity:1;stroke:#000000;stroke-width:1;stroke-linejoin:miter;stroke-miterlimit:4;stroke-opacity:1;stroke-dasharray:none;stroke-dashoffset:0"
       d="m 239.33639,510.5922 c -16.98166,-14.00726 -26.77015,-33.98954 -26.99891,-55.11569 -0.0547,-5.05213 0.20074,-9.48588 0.56765,-9.85279 0.36691,-0.36691 3.50836,0.2562 6.98099,1.38469 17.46973,5.67711 36.73031,5.57954 54.19377,-0.27451 l 6.8799,-2.30626 -0.53101,12.11727 c -0.58689,13.39241 -2.43542,20.40619 -8.33297,31.61727 -3.84567,7.31052 -11.71007,16.9536 -18.29188,22.42894 -7.34356,6.10903 -7.06261,6.10901 -14.46754,0.001 l 0,-2e-5 z"
       id="path3038"
       inkscape:connector-curvature="0" />
  </g>
</svg>
