<?xml version="1.0" encoding="UTF-8" standalone="no"?>
<!-- Created with Inkscape (http://www.inkscape.org/) -->

<svg
   xmlns:dc="http://purl.org/dc/elements/1.1/"
   xmlns:cc="http://creativecommons.org/ns#"
   xmlns:rdf="http://www.w3.org/1999/02/22-rdf-syntax-ns#"
   xmlns:svg="http://www.w3.org/2000/svg"
   xmlns="http://www.w3.org/2000/svg"
   xmlns:sodipodi="http://sodipodi.sourceforge.net/DTD/sodipodi-0.dtd"
   xmlns:inkscape="http://www.inkscape.org/namespaces/inkscape"
   id="svg2837"
   version="1.1"
   inkscape:version="0.47 r22583"
   width="466.25"
   height="268.75"
   xml:space="preserve"
   sodipodi:docname="Trickplay Color Logo (Dark BGround).png"><metadata
     id="metadata2843"><rdf:RDF><cc:Work
         rdf:about=""><dc:format>image/svg+xml</dc:format><dc:type
           rdf:resource="http://purl.org/dc/dcmitype/StillImage" /><dc:title></dc:title></cc:Work></rdf:RDF></metadata><defs
     id="defs2841"><inkscape:perspective
       sodipodi:type="inkscape:persp3d"
       inkscape:vp_x="0 : 0.5 : 1"
       inkscape:vp_y="0 : 1000 : 0"
       inkscape:vp_z="1 : 0.5 : 1"
       inkscape:persp3d-origin="0.5 : 0.33333333 : 1"
       id="perspective2845" /><clipPath
       clipPathUnits="userSpaceOnUse"
       id="clipPath2855"><path
         d="M 0,0 373,0 373,215 0,215 0,0 z"
         id="path2857" /></clipPath><clipPath
       clipPathUnits="userSpaceOnUse"
       id="clipPath2875"><path
         d="m 0,0.06 372,0 0,214.379 -372,0 L 0,0.06 z"
         id="path2877" /></clipPath></defs><sodipodi:namedview
     pagecolor="#000000"
     bordercolor="#666666"
     borderopacity="1"
     objecttolerance="10"
     gridtolerance="10"
     guidetolerance="10"
     inkscape:pageopacity="1"
     inkscape:pageshadow="2"
     inkscape:window-width="1306"
     inkscape:window-height="848"
     id="namedview2839"
     showgrid="false"
     inkscape:zoom="2.4837537"
     inkscape:cx="233.125"
     inkscape:cy="102.16569"
     inkscape:window-x="0"
     inkscape:window-y="0"
     inkscape:window-maximized="0"
     inkscape:current-layer="g2853"
     showborder="false"
     inkscape:showpageshadow="false" /><g
     id="g2847"
     inkscape:groupmode="layer"
     inkscape:label="Trickplay Color Logo"
     transform="matrix(1.25,0,0,-1.25,0,268.75)"><g
       id="g2851"><g
         id="g2853"
         clip-path="url(#clipPath2855)"><path
           d="m 317.417,173.716 -107.067,0 c -7.158,0 -12.963,-5.802 -12.963,-12.96 l 0,-107.077 c 0,-7.158 5.805,-12.957 12.963,-12.957 l 107.067,0 c 7.158,0 12.961,5.799 12.961,12.957 l 0,107.077 c 0,7.158 -5.803,12.96 -12.961,12.96"
           style="fill:#e51b24;fill-opacity:1;fill-rule:nonzero;stroke:none"
           id="path2859" /><path
           d="m 219.502,173.716 57.639,0 53.237,-22.115 0,-57.545 -22.112,-53.236 -57.642,0 -53.237,22.117 0,57.543 22.115,53.236"
           style="fill:#960a2c;fill-opacity:1;fill-rule:evenodd;stroke:none"
           id="path2861" /><path
           d="m 114.886,116.456 c -4.071,0 -6.008,-1.163 -6.008,-4.747 0,-3.586 1.937,-4.556 5.91,-4.556 3.973,0 5.912,1.067 5.912,4.749 0,3.586 -1.939,4.554 -5.814,4.554"
           style="fill:#e51b24;fill-opacity:1;fill-rule:evenodd;stroke:none"
           id="path2863" /><path
           d="m 192.798,70.716 -12.306,16.475 10.659,10.367 c 0.58,0.68 1.742,2.229 0.968,3.102 -0.871,0.97 -3.974,0.97 -5.135,0.97 -2.035,0 -4.653,-0.195 -6.007,-1.746 l -10.758,-12.498 0,27.326 c 0,1.647 -3.973,1.744 -5.137,1.744 -1.163,0 -5.135,-0.097 -5.135,-1.744 l 0,-45.74 c 0,-1.551 4.07,-1.842 5.135,-1.842 1.067,0 5.137,0.291 5.137,1.842 l 0,16.281 11.726,-16.087 c 1.259,-1.645 2.713,-1.938 6.491,-2.036 1.163,0 4.07,0.098 4.847,1.067 0.676,0.775 0,1.84 -0.485,2.519 z m -78.01,31.301 c -1.065,0 -5.135,-0.098 -5.135,-1.744 l 0,-31.397 c 0,-1.648 4.07,-1.746 5.135,-1.746 1.164,0 5.136,0.098 5.136,1.746 l 0,31.397 c 0,1.646 -3.972,1.744 -5.136,1.744 z m 37.31,-25.002 c -2.423,-1.744 -4.943,-3.002 -8.237,-3.002 -6.687,0 -8.335,5.522 -8.335,10.367 0,4.653 1.552,10.465 8.237,10.465 3.102,0 5.526,-1.162 7.85,-2.713 2.811,-1.742 3.198,1.649 3.198,3.2 0,2.421 -0.387,3.586 -2.907,4.843 -2.519,1.26 -5.62,1.842 -8.527,1.842 -12.6,0 -18.316,-8.236 -18.316,-18.316 0,-9.592 5.33,-17.055 17.249,-17.055 3.295,0 6.784,0.582 9.691,2.033 2.615,1.262 3.004,2.619 3.004,4.944 0,1.261 -0.096,5.33 -2.907,3.392 z m -70.063,34.694 c 0,0.871 0.096,4.359 -1.648,4.359 l -37.115,0 c -1.745,0 -1.649,-3.488 -1.649,-4.359 0,-0.873 -0.096,-4.361 1.649,-4.361 l 13.18,0 0,-38.28 c 0,-1.647 4.261,-1.938 5.329,-1.938 1.162,0 5.426,0.291 5.426,1.938 l 0,38.28 13.18,0 c 1.648,0 1.648,3.488 1.648,4.361 z m 17.539,-9.692 c -2.908,0 -5.136,-1.262 -6.976,-3.004 -0.872,-0.775 -1.745,-1.746 -2.715,-2.906 l 0,3.971 c 0,1.552 -3.197,1.552 -4.361,1.552 -1.161,0 -4.36,0 -4.36,-1.552 l 0,-31.202 c 0,-1.552 3.973,-1.746 5.135,-1.746 1.066,0 5.138,0.194 5.138,1.746 l 0,19.284 c 1.355,1.939 3.197,4.361 5.813,5.23 0.97,0.391 2.036,0.391 3.004,0.195 0.969,-0.195 2.618,-1.064 3.489,-0.482 0.874,0.678 0.874,3.197 0.874,3.969 0,1.068 0,2.715 -0.486,3.781 -0.581,1.066 -3.296,1.164 -4.555,1.164"
           style="fill:#ffffff;fill-opacity:1;fill-rule:evenodd;stroke:none"
           id="path2865" /><path
           d="m 321.973,99.787 c 0,1.261 -2.227,1.359 -3.198,1.359 -1.453,0 -3.198,-0.098 -3.682,-1.551 l -10.077,-25.293 -0.099,0 -10.368,25.196 c -0.677,1.55 -2.327,1.648 -4.071,1.648 -0.968,0 -3.392,-0.098 -3.392,-1.359 0,-0.192 0.195,-0.483 0.39,-0.967 l 13.081,-30.332 c 0.096,-0.487 0.579,-0.873 1.162,-1.067 l -5.136,-11.046 c -0.193,-0.487 -0.291,-1.067 0.196,-1.456 0.677,-0.386 1.26,-0.58 2.906,-0.58 3.099,0 3.586,0.194 4.07,1.454 l 4.941,11.628 13.18,31.497 c 0.193,0.484 0.097,0.677 0.097,0.869 z m -75.101,16.669 c -0.971,0 -3.393,0.098 -3.393,-1.163 l 0,-46.999 c 0,-1.261 2.521,-1.164 3.393,-1.164 0.871,0 3.391,-0.097 3.391,1.164 l 0,46.999 c 0,1.261 -2.52,1.163 -3.391,1.163 z m 31.59,-40.216 c -2.229,-2.131 -4.844,-4.166 -8.236,-4.553 -0.387,-0.098 -0.874,-0.098 -1.357,-0.098 -3.877,0 -6.881,1.549 -6.881,5.039 0,3.291 2.52,5.038 6.008,5.717 0.679,0.096 1.454,0.194 2.23,0.291 2.712,0.192 5.62,0.096 8.236,0.096 l 0,-6.492 z m -7.754,25.39 -0.482,0 c -3.587,-0.097 -7.462,-0.875 -10.659,-2.326 -0.874,-0.386 -1.455,-0.775 -1.842,-1.066 -0.97,-0.873 -1.068,-2.326 -0.872,-3.488 0.29,-1.456 1.55,-2.036 2.809,-1.36 3.102,1.553 6.977,3.006 10.564,3.104 l 0.29,0 c 5.717,0 7.946,-2.231 7.946,-7.075 l 0,-2.228 c -2.714,0 -5.524,0.098 -8.236,-0.1 -1.454,-0.095 -3.005,-0.287 -4.46,-0.482 -6.006,-1.162 -10.659,-4.553 -10.659,-10.272 0,-6.396 5.815,-9.593 12.695,-9.593 0.873,0 1.648,0 2.424,0.193 3.586,0.484 6.685,2.131 9.206,4.457 l 0,-2.906 c 0,-1.164 2.034,-1.358 2.906,-1.358 0.777,0 2.908,0.194 2.908,1.358 l 0,21.125 c 0,8.236 -5.235,12.017 -14.538,12.017 z M 221.967,89.902 c -0.872,-0.094 -1.744,-0.193 -2.714,-0.193 l -6.299,0 0,18.316 6.492,0 c 0.871,0 1.649,-0.097 2.521,-0.194 5.232,-0.581 9.011,-3.294 9.011,-8.624 0,-5.329 -3.684,-8.53 -9.011,-9.305 z m 0,23.066 -13.279,0 c -1.838,0 -2.81,-1.066 -2.81,-2.52 l 0,-41.864 c 0,-1.26 2.618,-1.454 3.585,-1.454 0.777,0 3.491,0.194 3.491,1.454 l 0,16.183 5.912,0 c 1.065,0 2.035,0 3.101,0.098 9.303,0.871 16.376,5.812 16.376,14.826 0,8.722 -7.463,12.792 -16.376,13.277"
           style="fill:#ffffff;fill-opacity:1;fill-rule:evenodd;stroke:none"
           id="path2869" /></g></g></g></svg>